HIERARCHY
ROOT Hips
{
	OFFSET 0.000000 0.000000 0.000000 
	CHANNELS 6 Xposition Yposition Zposition Yrotation Zrotation Xrotation 
	JOINT Lumbar
	{
		OFFSET 0.000000 0.000000 0.000000 
		CHANNELS 3 Zrotation Xrotation Yrotation
		JOINT Neck
		{
			OFFSET 0.000000 0.445665 0.000000 
			CHANNELS 3 Zrotation Xrotation Yrotation
			End Site
			{
				OFFSET 0.000000 0.227535 0.000000 
			}
		}
		JOINT RightShoulder
		{
			OFFSET 0.019635 0.377685 0.194865 
			CHANNELS 3 Zrotation Xrotation Yrotation
			JOINT RightElbow
			{
				OFFSET 0.000000 -0.243375 0.000000 
				CHANNELS 2 Zrotation Yrotation
				JOINT RightWrist
				{
					OFFSET 0.000000 -0.264825 0.000000 
					CHANNELS 2 Zrotation Xrotation
					End Site
					{
						OFFSET 0.006600 -0.176220 0.000990 
					}
				}
			}
		}
		JOINT LeftShoulder
		{
			OFFSET 0.019635 0.377685 -0.194865 
			CHANNELS 3 Zrotation Xrotation Yrotation
			JOINT LeftElbow
			{
				OFFSET 0.000000 -0.243375 0.000000 
				CHANNELS 2 Zrotation Yrotation
				JOINT LeftWrist
				{
					OFFSET 0.000000 -0.264825 0.000000 
					CHANNELS 2 Zrotation Xrotation
					End Site
					{
						OFFSET 0.006600 -0.176220 -0.000990 
					}
				}
			}
		}
	}
	JOINT RightHip
	{
		OFFSET 0.052140 -0.069960 0.075570 
		CHANNELS 3 Zrotation Xrotation Yrotation
		JOINT RightKnee
		{
			OFFSET 0.000000 -0.402270 0.000000 
			CHANNELS 1 Zrotation
			JOINT RightAnkle
			{
				OFFSET 0.000000 -0.404085 0.000000 
				CHANNELS 3 Zrotation Xrotation Yrotation
				End Site
				{
					OFFSET 0.204105 -0.089430 0.008415 
				}
			}
		}
	}
	JOINT LeftHip
	{
		OFFSET 0.052140 -0.069960 -0.075570 
		CHANNELS 3 Zrotation Xrotation Yrotation
		JOINT LeftKnee
		{
			OFFSET 0.000000 -0.402270 0.000000 
			CHANNELS 1 Zrotation
			JOINT LeftAnkle
			{
				OFFSET 0.000000 -0.404085 0.000000 
				CHANNELS 3 Zrotation Xrotation Yrotation
				End Site
				{
					OFFSET 0.204105 -0.089430 -0.008415 
				}
			}
		}
	}
}
MOTION
Frames: 28
Frame Time: 0.02
-0.06929 0.93301 -0.20444 200.91123 0 -11.97357 4.57523 11.26608 3.27503 -7.26309 -0.86802 -1.17568 -28.41692 -32.2932 48.80712 68.98467 130.87539 -75.22934 -21.88683 -15.50064 39.03328 75.32879 130.46794 -26.1842 -59.03164 -4.69157 -5.72621 13.69369 37.12765 2.00535 -2.64909 1.84423 -12.35776 15.8221 10.38381 -7.98255 -41.22682 17.72412 13.72076 6.52246
-0.06881 0.93265 -0.20443 200.92443 0 -12.08151 4.35838 11.40744 3.09865 -8.24193 -0.43294 -0.91507 -28.18804 -32.23009 47.63905 69.12524 130.89268 -75.22934 -21.88683 -16.38505 36.60307 76.9597 130.09398 -25.94845 -58.8342 -4.77389 -5.69823 13.69369 37.12764 2.00535 -2.60718 1.82513 -12.02479 15.93792 10.46268 -8.02718 -41.39341 17.7903 13.91277 6.54034
-0.0683 0.93229 -0.20431 201.00193 0 -12.19772 4.25437 11.58521 2.77916 -9.77981 -0.08177 -0.60006 -27.25572 -32.28631 46.55193 69.3784 131.37179 -75.22934 -21.88683 -15.68376 34.44205 77.20874 129.52592 -25.42414 -58.80124 -4.94278 -5.67043 13.69369 37.12762 2.00535 -2.56093 1.80772 -11.72187 16.07139 10.53898 -8.09208 -41.57383 17.86299 14.07022 6.5246
-0.0678 0.93195 -0.20425 201.06026 0 -12.30547 4.09834 11.73675 2.52748 -11.03557 0.31568 -0.31702 -26.64611 -32.32104 45.47418 69.58013 131.6192 -75.22934 -21.88683 -15.70318 32.20702 78.04036 129.08104 -25.05831 -58.65699 -5.06411 -5.64234 13.69369 37.12761 2.00535 -2.51734 1.7986 -11.42613 16.19516 10.60991 -8.15676 -41.74164 17.92813 14.22966 6.52266
-0.06731 0.93153 -0.20415 201.07754 0 -12.43406 3.94317 11.92841 2.25918 -12.40771 0.69621 -0.00348 -26.03548 -32.23115 44.19045 69.78907 131.9441 -75.22934 -21.88683 -15.74967 29.72973 79.09574 128.49345 -24.59963 -58.66747 -5.20932 -5.61502 13.69369 37.12759 2.00535 -2.46941 1.75532 -11.03913 16.32709 10.70929 -8.18481 -41.93763 18.0135 14.44777 6.52637
-0.06679 0.93127 -0.20411 201.19523 0 -12.52088 3.81377 12.04597 1.99223 -13.67069 1.08364 0.26074 -25.25557 -32.42144 43.35866 70.00661 132.22434 -75.22934 -21.88683 -15.35191 27.83574 79.33773 128.15478 -24.24478 -58.39058 -5.33564 -5.58619 13.69369 37.12758 2.00535 -2.4307 1.77864 -10.85094 16.44585 10.74839 -8.29344 -42.07774 18.05807 14.53549 6.51044
-0.06618 0.93142 -0.20431 201.57203 0 -12.48974 3.72937 11.94341 1.7788 -14.50011 1.53213 0.35941 -24.1771 -33.38799 43.76297 70.23 132.24989 -75.22934 -21.88683 -14.12495 27.48403 77.7577 128.55449 -24.40569 -57.32919 -5.31011 -5.55307 13.69369 37.12759 2.00535 -2.4099 2.02843 -11.20049 16.52311 10.62247 -8.61979 -42.05876 17.98684 14.26771 6.45017
-0.06554 0.93171 -0.20457 202.04758 0 -12.41623 3.66713 11.76622 1.5701 -15.20029 1.98462 0.40897 -22.95099 -34.62529 44.61969 70.4557 132.2194 -75.22934 -21.88683 -12.50082 27.71437 75.38911 129.2095 -24.65446 -55.96468 -5.27574 -5.51847 13.69369 37.12756 2.00535 -2.4 2.33803 -11.75013 16.58642 10.43572 -9.02609 -41.98305 17.87444 13.87057 6.37118
-0.06491 0.93194 -0.20479 202.47968 0 -12.3624 3.59409 11.6276 1.35004 -15.95634 2.41852 0.49186 -21.79348 -35.71581 45.26553 70.67316 132.22904 -75.22934 -21.88683 -11.04755 27.68738 73.31947 129.74545 -24.75256 -54.70672 -5.30002 -5.48459 13.69369 37.1276 2.00535 -2.39112 2.5909 -12.21123 16.65656 10.27613 -9.39584 -41.93406 17.78178 13.53496 6.29967
-0.06431 0.93218 -0.20507 202.90931 0 -12.30718 3.52782 11.47082 1.1625 -16.74209 2.91904 0.53185 -20.6072 -36.90947 45.93555 70.92461 132.19445 -75.22934 -21.88683 -9.57705 27.64529 71.44549 130.29001 -25.29103 -53.58456 -5.10498 -5.45044 13.69369 37.12759 2.00535 -2.35776 2.9649 -12.66354 16.72555 10.11839 -9.76826 -41.8818 17.68509 13.18622 6.231
-0.06364 0.93242 -0.20525 203.36509 0 -12.24456 3.45147 11.33341 0.91182 -17.43036 3.28474 0.6467 -19.45249 -37.95282 46.66252 71.1048 132.23048 -75.22934 -21.88683 -8.07253 27.76131 69.00392 130.87665 -24.95851 -52.10746 -5.35304 -5.41658 13.69369 37.12745 2.00535 -2.37691 3.10539 -13.18089 16.79304 9.94254 -10.15256 -41.82248 17.58684 12.83502 6.15282
-0.06283 0.93257 -0.20517 203.88193 0 -12.17264 3.33946 11.26983 0.47318 -17.85792 3.25917 0.99879 -18.44602 -38.49699 47.42734 71.08266 132.4927 -75.22934 -21.88683 -6.54607 28.24175 65.11671 131.54485 -22.02004 -49.70857 -6.91506 -5.3835 13.69369 37.12788 2.00535 -2.54837 2.54659 -13.83171 16.86249 9.73009 -10.56029 -41.75885 17.49476 12.50451 6.0495
-0.06196 0.9327 -0.20499 204.41861 0 -12.09445 3.2163 11.22773 -0.02585 -18.19314 3.10102 1.42457 -17.47632 -38.88237 48.23404 70.98894 132.82242 -75.22934 -21.88683 -5.01272 28.84648 60.70821 132.24249 -18.24089 -46.96686 -8.90517 -5.3509 13.69369 37.12723 2.00535 -2.77056 1.7579 -14.53987 16.93016 9.50179 -10.97488 -41.68951 17.40232 12.17688 5.93812
-0.06112 0.93285 -0.20486 204.93774 0 -12.01875 3.09941 11.17427 -0.48867 -18.58325 3.01635 1.80371 -16.47562 -39.35266 49.02829 70.93084 133.10741 -75.22934 -21.88683 -3.50567 29.34747 56.58878 132.90921 -14.96059 -44.38938 -10.64257 -5.31827 13.69369 37.12742 2.00535 -2.96292 1.1009 -15.22043 16.99699 9.28171 -11.37992 -41.62214 17.30984 11.85088 5.83283
-0.06027 0.93299 -0.20475 205.49768 0 -11.94355 2.97877 11.12508 -0.98951 -18.91544 2.87792 2.23512 -15.52531 -39.78227 49.81505 70.86039 133.44985 -75.22934 -21.88683 -1.88175 30.06999 52.21028 133.65825 -11.17368 -41.75849 -12.63037 -5.28458 13.69369 37.12928 2.00535 -3.18392 0.33215 -15.91668 17.07097 9.05521 -11.81621 -41.55642 17.21713 11.50812 5.71645
-0.05942 0.93313 -0.20455 205.97443 0 -11.86579 2.86236 11.07293 -1.42417 -19.34692 2.81744 2.57777 -14.48622 -40.25083 50.61586 70.79793 133.68962 -75.22934 -21.88683 -0.51024 30.35105 48.27112 134.24016 -8.26176 -39.17057 -14.192 -5.25352 13.69369 37.12347 2.00534 -3.35762 -0.26054 -16.58853 17.12897 8.8391 -12.18637 -41.4854 17.12491 11.20242 5.62173
-0.05856 0.93325 -0.2041 206.23012 0 -11.7876 2.7655 11.00868 -1.67304 -20.08495 3.02682 2.64058 -13.14753 -40.90423 51.49013 70.78135 133.62666 -75.22934 -21.88686 0.20471 29.39615 45.56602 134.34673 -7.78475 -36.71238 -14.52918 -5.2271 13.69367 37.13029 2.00527 -3.38423 -0.29958 -17.20122 17.15048 8.6557 -12.38666 -41.41212 17.03779 11.00112 5.5873
-0.0577 0.93338 -0.20356 206.3988 0 -11.70634 2.67225 10.94077 -1.85119 -20.92555 3.31553 2.615 -11.72703 -41.59453 52.3661 70.77442 133.45889 -75.22935 -21.88689 0.65643 27.98743 43.34445 134.28396 -8.24364 -34.32767 -14.41411 -5.20375 13.69364 37.1231 2.00518 -3.36215 -0.15584 -17.78227 17.15476 8.4834 -12.51775 -41.33202 16.95057 10.83733 5.57554
-0.05684 0.93351 -0.20307 206.5974 0 -11.6233 2.57375 10.87414 -2.05382 -21.71246 3.55276 2.64095 -10.37524 -42.24039 53.20992 70.75854 133.34095 -75.22935 -21.88692 1.19755 26.77444 40.97636 134.30189 -8.4066 -31.95437 -14.46606 -5.18067 13.69361 37.10039 2.00508 -3.36503 -0.10354 -18.3621 17.16216 8.30643 -12.66979 -41.248 16.86132 10.65502 5.55421
-0.05596 0.9336 -0.20257 206.83561 0 -11.5533 2.48982 10.81015 -2.29026 -22.52304 3.84859 2.62098 -8.89354 -42.99453 54.1892 70.7581 133.21558 -75.22935 -21.88695 1.86247 25.60971 38.28302 134.30557 -8.02754 -29.36619 -14.68712 -5.15071 13.6936 37.17027 2.00503 -3.35792 -0.02417 -19.00963 17.18904 8.12801 -12.86363 -41.19303 16.78125 10.47827 5.52864
-0.05513 0.93379 -0.20205 206.97262 0 -11.45567 2.3769 10.73914 -2.4395 -23.31352 4.04535 2.67532 -7.65999 -43.53793 54.88458 70.73037 133.08053 -75.22936 -21.88697 2.2123 24.23604 36.38562 134.29788 -8.96851 -27.26453 -14.45353 -5.13564 13.69356 37.04369 2.00489 -3.35916 0.04558 -19.5082 17.17171 7.95456 -12.95737 -41.07643 16.6815 10.29965 5.51847
-0.05443 0.9343 -0.2015 206.83248 0 -11.28117 2.17918 10.65311 -2.35819 -23.99065 3.92879 2.95029 -7.1557 -43.4557 54.80852 70.611 132.93867 -75.22935 -21.88695 1.70713 22.38671 36.60021 134.30275 -13.69684 -26.34174 -12.9812 -5.16219 13.69347 36.38032 2.00452 -3.39724 0.04189 -19.59941 17.03289 7.79994 -12.76194 -40.78789 16.53189 10.09972 5.53597
-0.05378 0.93492 -0.20093 206.59738 0 -11.0793 1.95246 10.55951 -2.19269 -24.64889 3.71418 3.3034 -6.90063 -43.16691 54.44443 70.46661 132.79124 -75.22935 -21.88692 0.90175 20.34465 37.59584 134.30107 -19.65978 -25.93246 -11.08175 -5.20335 13.69335 35.51914 2.00407 -3.4448 0.02374 -19.54214 16.85094 7.64851 -12.47403 -40.43829 16.36159 9.89778 5.56989
-0.05309 0.93549 -0.20038 206.41754 0 -10.89082 1.74217 10.46688 -2.06996 -25.33995 3.55858 3.62504 -6.51386 -42.99674 54.20298 70.34339 132.65001 -75.22935 -21.88689 0.26779 18.39557 38.21534 134.30095 -24.81371 -25.3894 -9.43805 -5.23707 13.69325 34.74725 2.00367 -3.48655 0.01476 -19.55508 16.69099 7.49065 -12.24739 -40.11888 16.19785 9.7015 5.60253
-0.05245 0.93607 -0.1998 206.18173 0 -10.69803 1.52013 10.38411 -1.9254 -25.93932 3.34497 3.92855 -6.19668 -42.72508 53.99484 70.17985 132.49038 -75.22934 -21.88686 -0.51762 16.4049 38.94069 134.30217 -31.03185 -24.43934 -7.52097 -5.27446 13.69314 33.97811 2.00321 -3.533 0.00105 -19.55562 16.51991 7.35444 -11.93555 -39.7887 16.04624 9.48707 5.61012
-0.05174 0.93665 -0.19927 206.04337 0 -10.508 1.31329 10.27961 -1.80771 -26.71492 3.2275 4.28703 -5.80159 -42.61304 53.65098 70.0933 132.3682 -75.22934 -21.88683 -1.06229 14.46486 39.62493 134.29968 -35.33287 -24.44408 -6.07475 -5.30737 13.69305 33.15561 2.00284 -3.57252 -0.0086 -19.54686 16.36251 7.17342 -11.78207 -39.46684 15.86429 9.30876 5.67315
-0.05085 0.93719 -0.19887 206.17859 0 -10.33002 1.17576 10.11217 -1.78109 -28.05751 3.40261 4.79967 -5.07319 -43.01162 52.98416 70.23386 132.36019 -75.22934 -21.88683 -0.8088 12.68161 40.00241 134.30323 -33.87469 -27.08036 -6.06091 -5.32671 13.69303 32.23986 2.0027 -3.59068 -0.00413 -19.5508 16.24879 6.87035 -12.07215 -39.17979 15.60481 9.23644 5.88808
-0.04988 0.93773 -0.19851 206.41934 0 -10.15602 1.05082 9.92397 -1.7857 -29.56298 3.67675 5.36115 -4.26917 -43.57411 52.19389 70.45133 132.38951 -75.22934 -21.88683 -0.31259 10.96457 40.30956 134.30168 -30.4695 -30.63673 -6.53304 -5.34058 13.69303 31.27526 2.00259 -3.60167 0.00412 -19.55016 16.15103 6.52143 -12.52822 -38.90338 15.31514 9.19919 6.15748
